<svg width="40" height="46" viewBox="0 0 40 46" fill="none" xmlns="http://www.w3.org/2000/svg">
<path d="M35.5556 41.8182H4.44444V8.36364H8.88889V14.6364H31.1111V8.36364H35.5556V41.8182ZM20 4.18182C20.5894 4.18182 21.1546 4.40211 21.5713 4.79423C21.9881 5.18635 22.2222 5.71818 22.2222 6.27273C22.2222 6.82727 21.9881 7.3591 21.5713 7.75122C21.1546 8.14334 20.5894 8.36364 20 8.36364C19.4106 8.36364 18.8454 8.14334 18.4287 7.75122C18.0119 7.3591 17.7778 6.82727 17.7778 6.27273C17.7778 5.71818 18.0119 5.18635 18.4287 4.79423C18.8454 4.40211 19.4106 4.18182 20 4.18182ZM35.5556 4.18182H26.2667C25.3333 1.75636 22.8889 0 20 0C17.1111 0 14.6667 1.75636 13.7333 4.18182H4.44444C3.2657 4.18182 2.13524 4.6224 1.30175 5.40664C0.468252 6.19089 0 7.25455 0 8.36364V41.8182C0 42.9273 0.468252 43.9909 1.30175 44.7752C2.13524 45.5594 3.2657 46 4.44444 46H35.5556C36.7343 46 37.8648 45.5594 38.6983 44.7752C39.5317 43.9909 40 42.9273 40 41.8182V8.36364C40 7.25455 39.5317 6.19089 38.6983 5.40664C37.8648 4.6224 36.7343 4.18182 35.5556 4.18182Z" fill="#6772E6"/>
</svg>
