<svg width="69" height="69" viewBox="0 0 69 69" fill="none" xmlns="http://www.w3.org/2000/svg">
<path d="M50.619 14.7841C50.619 14.7841 36.3289 9.45087 23.216 25.0782C18.1348 31.1338 15.465 37.7148 14.0598 43.4596C13.6064 45.4759 14.4325 47.667 16.1724 49.1269L22.7795 54.671C24.5194 56.1309 26.8207 56.564 28.7276 55.7674C34.1632 53.4044 40.1586 49.6139 45.2398 43.5583C58.3527 27.931 50.619 14.7841 50.619 14.7841ZM26.0577 50.7642L19.4506 45.2201C20.9198 38.9965 23.6706 33.4819 27.6208 28.7742C35.2263 19.7104 42.9513 19.0022 46.7999 19.3356C47.7965 23.0679 48.4405 30.7985 40.8351 39.8623C36.8848 44.57 31.9317 48.2365 26.0577 50.7642ZM35.4559 68.6365L29.4953 58.4754C33.5448 56.7803 37.2358 54.6179 40.5575 52.0458L35.4559 68.6365ZM11.2596 43.1738L0.217831 39.0683L15.6706 31.1632C13.7144 34.8811 12.2258 38.8915 11.2596 43.1738ZM34.2279 34.3182C31.8053 32.2854 31.2984 28.8641 33.1014 26.7154C34.9044 24.5666 38.3618 24.4718 40.7844 26.5046C43.207 28.5374 43.7139 31.9587 41.9109 34.1075C40.1079 36.2562 36.6506 36.3511 34.2279 34.3182Z" fill="#6772E6"/>
</svg>

