<svg width="42" height="55" viewBox="0 0 42 55" fill="none" xmlns="http://www.w3.org/2000/svg">
<path d="M41.3535 4.9875L38.3918 0.893626C37.574 -0.297875 36.1373 -0.297875 35.2754 0.893626L15.4716 28.2676L21.5498 36.6692L41.3535 9.29524C42.2155 8.10374 42.2155 6.1179 41.3535 4.9875ZM11.0512 33.6141C9.29261 33.6141 7.60606 34.5797 6.36256 36.2986C5.11906 38.0174 4.42047 40.3487 4.42047 42.7795C4.42047 46.7817 1.8566 48.8897 0 48.8897C2.03342 52.617 5.52559 55 8.84094 55C11.1857 55 13.4344 53.7125 15.0924 51.4207C16.7504 49.1289 17.6819 46.0206 17.6819 42.7795C17.6819 40.3487 16.9833 38.0174 15.7398 36.2986C14.4963 34.5797 12.8098 33.6141 11.0512 33.6141Z" fill="#6772E6"/>
</svg>
