<svg width="50" height="50" viewBox="0 0 50 50" fill="none" xmlns="http://www.w3.org/2000/svg">
<path d="M33.3126 39.1667C36.6214 39.1667 39.3174 36.5476 39.3174 33.3333C39.3174 30.119 36.6214 27.5 33.3126 27.5C29.9793 27.5 27.3077 30.119 27.3077 33.3333C27.3077 36.5476 29.9793 39.1667 33.3126 39.1667ZM46.0575 34.9524L49.685 37.7143C50.0036 37.9762 50.1016 38.4048 49.881 38.7857L46.4497 44.5476C46.2291 44.9048 45.8125 45.0476 45.3958 44.9048L41.1311 43.2381C40.2488 43.9048 39.2684 44.4524 38.239 44.881L37.5772 49.2857C37.5282 49.6905 37.1606 50 36.7439 50H29.8812C29.4401 50 29.0969 49.6905 29.0234 49.2857L28.3862 44.881C27.3323 44.4524 26.3764 43.9048 25.494 43.2381L21.2049 44.9048C20.8372 45.0476 20.3715 44.9048 20.1755 44.5476L16.7441 38.7857C16.5235 38.4048 16.6216 37.9762 16.9402 37.7143L20.5676 34.9524L20.4451 33.3333L20.5676 31.6905L16.9402 28.9524C16.6216 28.6905 16.5235 28.2381 16.7441 27.881L20.1755 22.119C20.3715 21.7381 20.8372 21.5952 21.2049 21.7381L25.494 23.4286C26.3764 22.7619 27.3323 22.1905 28.3862 21.7857L29.0234 17.3571C29.0969 16.9762 29.4401 16.6667 29.8812 16.6667H36.7439C37.1606 16.6667 37.5282 16.9762 37.5772 17.3571L38.239 21.7857C39.2684 22.1905 40.2488 22.7619 41.1311 23.4286L45.3958 21.7381C45.8125 21.5952 46.2291 21.7381 46.4497 22.119L49.881 27.881C50.1016 28.2381 50.0036 28.6905 49.685 28.9524L46.0575 31.6905L46.1801 33.3333L46.0575 34.9524ZM10.7393 14.4524C12.8716 14.4524 14.5873 12.7857 14.5873 10.7143C14.5873 8.64286 12.8716 6.95238 10.7393 6.95238C9.71224 6.95238 8.72725 7.34872 8.00101 8.05422C7.27478 8.75971 6.86678 9.71657 6.86678 10.7143C6.86678 12.7857 8.60696 14.4524 10.7393 14.4524ZM18.9255 11.7619L21.3029 13.5238C21.4745 13.6905 21.5235 13.9762 21.3764 14.2143L19.1706 17.9286C19.048 18.1667 18.7539 18.2619 18.5088 18.1667L15.7637 17.0952L13.95 18.1429L13.4844 20.9762C13.4353 21.2381 13.2148 21.4286 12.9451 21.4286H8.53343C8.23932 21.4286 8.01873 21.2381 7.96971 20.9762L7.57756 18.1429L5.71483 17.0952L2.92074 18.1667C2.70016 18.2619 2.43055 18.1667 2.28349 17.9286L0.0776356 14.2143C-0.0694217 13.9762 0.0041074 13.6905 0.200184 13.5238L2.52859 11.7619L2.45506 10.7143L2.52859 9.66667L0.200184 7.90476C0.0041074 7.7381 -0.0694217 7.45238 0.0776356 7.21429L2.28349 3.5C2.43055 3.2619 2.70016 3.16667 2.92074 3.2619L5.69032 4.33333L7.57756 3.28571L7.96971 0.452381C8.01873 0.190476 8.23932 0 8.53343 0H12.9451C13.2148 0 13.4353 0.190476 13.4844 0.452381L13.95 3.28571L15.7637 4.33333L18.5088 3.2619C18.7539 3.16667 19.048 3.2619 19.1706 3.5L21.3764 7.21429C21.5235 7.45238 21.4745 7.7381 21.3029 7.90476L18.9255 9.66667L18.999 10.7143L18.9255 11.7619Z" fill="#6772E6"/>
</svg>
