<svg width="256" height="256" xmlns="http://www.w3.org/2000/svg">

 <g>
  <title>background</title>
  <rect fill="none" id="canvas_background" height="402" width="582" y="-1" x="-1"/>
 </g>
 <g>
  <title>Layer 1</title>
  <circle fill="#82ace8" r="128" id="Эллипс_1" cy="128" cx="128" class="cls-1"/>
  <path fill-rule="evenodd" fill="#6772e6" id="Эллипс_2_копия_2" d="m180,207.494476a28.006,28.006 0 0 1 -26.91,-20.269l-0.09,0.269s-3.714,-12.984 -25,-18c-18.053,-4.254 -34,7 -34,7l0.014,-0.039a37,37 0 1 1 -23.014,-65.961c1.074,0 2.135,0.056 3.186,0.146l-0.186,-0.146s20.871,2.336 30,-6c10.218,-9.331 8,-23 8,-23l0.3,0.216a17.995,17.995 0 1 1 20.385,14.562l0.315,0.222s-14.5,-0.326 -23,11c-7.7,10.259 -4,28 -4,28l0,0a37.2,37.2 0 0 1 1.194,4.467a37.7,37.7 0 0 0 20.806,19.533c17.406,6.475 30.068,0.794 33.834,-1.3a28,28 0 1 1 18.166,49.3z" class="cls-2"/>
 </g>
</svg>