<svg width="110" height="110" xmlns="http://www.w3.org/2000/svg">

 <g>
  <title>background</title>
  <rect fill="none" id="canvas_background" height="402" width="582" y="-1" x="-1"/>
 </g>
 <g>
  <title>Layer 1</title>
  <circle id="svg_1" fill="#82ace8" r="55" cy="55" cx="55"/>
  <path id="svg_3" fill="#6772e6" d="m77.004,23l-6.364,6.364c-0.705,0.705 -0.768,1.802 -0.2,2.584l-15.612,7.571l-2.791,17.009l1.338,1.338l17.009,-2.791l7.571,-15.612c0.782,0.568 1.879,0.505 2.584,-0.2l6.364,-6.364l-9.899,-9.899z"/>
  <path id="svg_4" fill="#6772e6" d="m70.44,31.948l-15.612,7.571l-2.791,17.009l1.338,1.338l17.009,-2.791l7.571,-15.612c-0.084,-0.061 -7.454,-7.431 -7.515,-7.515z"/>
  <path id="svg_5" fill="#6772e6" d="m44,76.917l0,-14l-2,0l0,14c-2.279,0.464 -4,2.484 -4,4.899c0,2.757 2.243,5 5,5s5,-2.243 5,-5c0,-2.415 -1.721,-4.435 -4,-4.899z"/>
  <path id="svg_6" fill="#6772e6" d="m42,32.917l0,23l2,0l0,-23c2.279,-0.464 4,-2.484 4,-4.899c0,-2.757 -2.243,-5 -5,-5s-5,2.243 -5,5c0,2.414 1.721,4.434 4,4.899z"/>
  <path id="svg_7" fill="#6772e6" d="m79,79l0,2.918c-14.826,-0.548 -25.499,-4.185 -30.981,-10.62c-2.512,-2.949 -3.516,-5.995 -3.895,-8.299l2.876,0l0,-8l-3.137,0c-1.037,-15.913 -8.209,-21.286 -12.863,-23.087l0,-3.912l-8,0l0,8l8,0l0,-1.948c4.076,1.844 9.921,6.937 10.862,20.948l-2.862,0l0,8l3.084,0c0.376,2.613 1.468,6.12 4.375,9.551c5.94,7.012 16.885,10.826 32.541,11.373l0,3.076l8,0l0,-8l-8,0z"/>
  <path id="svg_8" fill="#6772e6" d="m70.65722,31.73078l-15.612,7.571l-2.791,17.009l0.715,0.716l21.483,-21.484c-1.876,-1.875 -3.764,-3.77 -3.795,-3.812z"/>
  <path id="svg_9" fill="#6772e6" d="m74.45222,35.54278l7.765,-7.764l-4.996,-4.996l-6.364,6.364c-0.705,0.705 -0.768,1.802 -0.2,2.584c0.031,0.042 1.919,1.937 3.795,3.812z"/>
 </g>
</svg>