<svg width="37" height="60" viewBox="0 0 37 60" fill="none" xmlns="http://www.w3.org/2000/svg">
<path d="M5.20152 0C3.82199 0 2.49896 0.574674 1.52349 1.5976C0.548015 2.62053 0 4.00791 0 5.45455V54.5455C0 55.9921 0.548015 57.3795 1.52349 58.4024C2.49896 59.4253 3.82199 60 5.20152 60H31.2091C32.5886 60 33.9117 59.4253 34.8872 58.4024C35.8626 57.3795 36.4106 55.9921 36.4106 54.5455V5.45455C36.4106 4.00791 35.8626 2.62053 34.8872 1.5976C33.9117 0.574674 32.5886 0 31.2091 0H5.20152ZM5.20152 8.18182H31.2091V51.8182H5.20152V8.18182ZM10.403 13.6364V24.5455H14.3042V17.7273H20.8061V13.6364H10.403ZM22.1065 35.4545V42.2727H15.6046V46.3636H26.0076V35.4545H22.1065Z" fill="#6772E6"/>
</svg>
