<svg width="63" height="60" viewBox="0 0 63 60" fill="none" xmlns="http://www.w3.org/2000/svg">
<path d="M4.4317 30C4.4317 26.28 5.27434 22.74 6.74117 19.5L19.5369 53.16C10.5799 48.99 4.4317 40.2 4.4317 30ZM49.2792 28.71C49.2792 30.9 48.3741 33.45 47.2506 37.02L44.5666 45.6L34.8918 18L37.9503 17.7C39.4171 17.52 39.2299 15.48 37.7943 15.57C37.7943 15.57 33.4562 15.9 30.6474 15.9L23.5941 15.57C22.1585 15.48 22.0024 17.61 23.4068 17.7L26.2469 18L30.4289 28.92L24.5616 45.81L14.7931 18L17.8828 17.7C19.3184 17.52 19.1312 15.48 17.6956 15.57C17.6956 15.57 13.3575 15.9 10.5487 15.9L8.83218 15.87C13.6384 8.88 21.8464 4.26 31.2091 4.26C38.1688 4.26 44.5354 6.84 49.2792 11.01H48.9359C46.3143 11.01 44.4418 13.2 44.4418 15.57C44.4418 17.7 45.7214 19.5 47.0634 21.6C48.0933 23.31 49.2792 25.5 49.2792 28.71ZM31.6773 32.25L39.9165 53.91L40.1037 54.27C37.3261 55.23 34.33 55.74 31.2091 55.74C28.5876 55.74 26.0596 55.38 23.6565 54.69L31.6773 32.25ZM54.7096 17.64C56.8006 21.33 57.9866 25.5 57.9866 30C57.9866 39.48 52.6186 47.79 44.6603 52.23L52.8371 29.52C54.3663 25.86 54.8969 22.92 54.8969 20.31L54.7096 17.64ZM31.2091 0C35.3076 0 39.3659 0.775973 43.1523 2.28361C46.9388 3.79126 50.3793 6.00104 53.2773 8.7868C56.1753 11.5726 58.4742 14.8797 60.0426 18.5195C61.611 22.1593 62.4183 26.0603 62.4183 30C62.4183 37.9565 59.1302 45.5871 53.2773 51.2132C47.4245 56.8393 39.4863 60 31.2091 60C27.1107 60 23.0524 59.224 19.2659 57.7164C15.4794 56.2087 12.039 53.999 9.14094 51.2132C3.28809 45.5871 0 37.9565 0 30C0 22.0435 3.28809 14.4129 9.14094 8.7868C14.9938 3.16071 22.932 0 31.2091 0ZM31.2091 58.62C47.6251 58.62 60.9826 45.78 60.9826 30C60.9826 14.22 47.6251 1.38 31.2091 1.38C14.7931 1.38 1.43562 14.22 1.43562 30C1.43562 45.78 14.7931 58.62 31.2091 58.62Z" fill="#6772E6"/>
</svg>
