<svg width="40" height="46" fill="none" xmlns="http://www.w3.org/2000/svg"><path d="M35.556 41.818H4.444V8.364H8.89v6.272h22.22V8.364h4.445v33.454zM20 4.182c.59 0 1.155.22 1.571.612.417.392.651.924.651 1.479a2.03 2.03 0 01-.65 1.478A2.295 2.295 0 0120 8.364c-.59 0-1.155-.22-1.571-.613a2.03 2.03 0 01-.651-1.478c0-.555.234-1.087.65-1.479A2.295 2.295 0 0120 4.182zm15.556 0h-9.29C25.334 1.756 22.89 0 20 0c-2.889 0-5.333 1.756-6.267 4.182H4.444a4.59 4.59 0 00-3.142 1.225A4.06 4.06 0 000 8.364v33.454a4.06 4.06 0 001.302 2.957A4.59 4.59 0 004.444 46h31.112a4.59 4.59 0 003.142-1.225A4.06 4.06 0 0040 41.818V8.364a4.06 4.06 0 00-1.302-2.957 4.59 4.59 0 00-3.142-1.225z" fill="#6772E6"/></svg>