<svg width="69" height="69" fill="none" xmlns="http://www.w3.org/2000/svg"><path d="M50.619 14.784s-14.29-5.333-27.403 10.294c-5.081 6.056-7.751 12.637-9.156 18.382-.454 2.016.372 4.207 2.112 5.667l6.607 5.544c1.74 1.46 4.042 1.893 5.949 1.096 5.435-2.363 11.43-6.153 16.512-12.209 13.113-15.627 5.379-28.774 5.379-28.774zm-24.561 35.98L19.45 45.22c1.469-6.224 4.22-11.738 8.17-16.446 7.605-9.064 15.33-9.772 19.179-9.438.997 3.732 1.64 11.463-5.965 20.526-3.95 4.708-8.903 8.374-14.777 10.902zm9.398 17.872l-5.96-10.16a48.757 48.757 0 0011.061-6.43l-5.101 16.59zM11.26 43.174L.218 39.068l15.453-7.905a48.76 48.76 0 00-4.411 12.01zm22.968-8.856c-2.423-2.033-2.93-5.454-1.127-7.603 1.803-2.148 5.26-2.243 7.683-.21 2.423 2.032 2.93 5.454 1.127 7.603-1.803 2.148-5.26 2.243-7.683.21z" fill="#6772E6"/></svg>