<svg width="50" height="50" fill="none" xmlns="http://www.w3.org/2000/svg"><path d="M33.313 39.167c3.308 0 6.004-2.62 6.004-5.834 0-3.214-2.696-5.833-6.004-5.833-3.334 0-6.005 2.619-6.005 5.833 0 3.215 2.671 5.834 6.005 5.834zm12.744-4.215l3.628 2.762a.82.82 0 01.196 1.072l-3.431 5.762c-.22.357-.638.5-1.054.357l-4.265-1.667a13.238 13.238 0 01-2.892 1.643l-.662 4.405c-.049.404-.416.714-.833.714H29.88a.863.863 0 01-.858-.714l-.637-4.405a12.696 12.696 0 01-2.892-1.643l-4.29 1.667c-.367.143-.832 0-1.029-.357l-3.43-5.762a.82.82 0 01.195-1.072l3.628-2.762-.123-1.619.123-1.642-3.628-2.739a.825.825 0 01-.196-1.071l3.431-5.762c.197-.38.662-.524 1.03-.38l4.289 1.69c.882-.667 1.838-1.238 2.892-1.643l.637-4.429a.865.865 0 01.858-.69h6.863c.417 0 .784.31.833.69l.662 4.429c1.03.404 2.01.976 2.892 1.643l4.265-1.69c.416-.144.833 0 1.054.38l3.431 5.762c.22.357.123.81-.196 1.071l-3.628 2.738.123 1.643-.123 1.62zm-35.318-20.5c2.133 0 3.848-1.666 3.848-3.738 0-2.071-1.715-3.762-3.848-3.762a3.931 3.931 0 00-2.738 1.102 3.708 3.708 0 00-1.134 2.66c0 2.072 1.74 3.738 3.872 3.738zm8.186-2.69l2.378 1.762c.171.167.22.452.073.69l-2.205 3.715a.53.53 0 01-.662.238l-2.745-1.072-1.814 1.048-.466 2.833a.547.547 0 01-.539.453H8.533a.554.554 0 01-.563-.453l-.392-2.833-1.863-1.048-2.794 1.072c-.22.095-.49 0-.638-.238L.078 14.214a.534.534 0 01.122-.69l2.329-1.762-.074-1.048.074-1.047L.2 7.905a.534.534 0 01-.122-.69L2.283 3.5c.148-.238.417-.333.638-.238l2.77 1.071 1.887-1.047L7.97.452A.554.554 0 018.533 0h4.412c.27 0 .49.19.54.452l.465 2.834 1.814 1.047 2.745-1.071a.53.53 0 01.662.238l2.205 3.714a.556.556 0 01-.073.69l-2.378 1.763.074 1.047-.073 1.048z" fill="#6772E6"/></svg>