<svg width="256" height="256" xmlns="http://www.w3.org/2000/svg"><path fill="none" d="M-1-1h582v402H-1z"/><circle fill="#82ace8" r="128" cy="128" cx="128" class="cls-1"/><path fill-rule="evenodd" fill="#6772e6" d="M180 207.494a28.006 28.006 0 01-26.91-20.269l-.09.27s-3.714-12.985-25-18c-18.053-4.255-34 7-34 7l.014-.04A37 37 0 1171 110.495c1.074 0 2.135.055 3.186.145l-.186-.146s20.871 2.336 30-6c10.218-9.33 8-23 8-23l.3.216a17.995 17.995 0 1120.385 14.562l.315.222s-14.5-.326-23 11c-7.7 10.26-4 28-4 28a37.2 37.2 0 011.194 4.467A37.7 37.7 0 00128 159.494c17.406 6.475 30.068.794 33.834-1.3a28 28 0 1118.166 49.3z" class="cls-2"/></svg>