<svg width="64" height="64" xmlns="http://www.w3.org/2000/svg"><path fill="none" d="M-1-1h582v402H-1z"/><circle r="32" fill="#82ace8" cy="31.874" cx="32.126"/><path opacity=".2" fill="#231F20" d="M49.5 22.333h-5s-1.445 0-2.5-2.667C41.463 18.309 40.88 17 39.5 17h-10c-1.38 0-1.98 1.301-2.5 2.667-1.015 2.667-2.5 2.667-2.5 2.667H22c0-1.472-1.12-2.667-2.5-2.667H17c-1.38 0-2.5 1.195-2.5 2.667-1.38 0-2.5 1.195-2.5 2.667v21.333C12 47.805 13.12 49 14.5 49h35c1.38 0 2.5-1.195 2.5-2.667V25c0-1.472-1.12-2.667-2.5-2.667z"/><path fill="#6772e6" d="M49.5 20h-5s-1.445.333-2.5-2.333C41.463 16.309 40.88 15 39.5 15h-10c-1.38 0-1.98 1.301-2.5 2.667C25.985 20.333 24.5 20 24.5 20H22c0-1.472-1.12-2-2.5-2H17c-1.38 0-2.5.528-2.5 2-1.38 0-2.5 1.528-2.5 3v21.333C12 45.805 13.12 47 14.5 47h35c1.38 0 2.5-1.195 2.5-2.667V23c0-1.472-1.12-3-2.5-3z"/><circle r="9" fill="#6772e6" cy="33" cx="34"/><path opacity=".2" fill="#231F20" d="M34 46c-6.065 0-11-4.935-11-11s4.935-11 11-11 11 4.935 11 11-4.935 11-11 11zm0-18c-3.859 0-7 3.141-7 7s3.141 7 7 7 7-3.141 7-7-3.141-7-7-7z"/><path fill="#82ace8" d="M34 43.5c-5.79 0-10.5-4.71-10.5-10.5S28.21 22.5 34 22.5 44.5 27.21 44.5 33 39.79 43.5 34 43.5zm0-18c-4.136 0-7.5 3.364-7.5 7.5s3.364 7.5 7.5 7.5 7.5-3.364 7.5-7.5-3.364-7.5-7.5-7.5z"/></svg>