<svg width="150" height="150" xmlns="http://www.w3.org/2000/svg"><path fill="none" d="M-1-1h582v402H-1z"/><circle fill="#82ace8" r="65" cy="75" cx="75" class="cls-1"/><path fill="#6772e6" d="M98.25 76A23.19 23.19 0 1062.1 95.2a2.63 2.63 0 00-.9 1.13 2.73 2.73 0 002 3.5 40.82 40.82 0 0024.15 0 2.73 2.73 0 002-3.5 2.67 2.67 0 00-1.11-1.27A23.15 23.15 0 0098.25 76z" class="cls-2"/><path fill="#6772e6" d="M87.13 102.71a2.3 2.3 0 01-1.68 3 34.49 34.49 0 01-20.39 0 2.3 2.3 0 01-1.68-3 2.45 2.45 0 013-1.32 30 30 0 0017.75 0 2.45 2.45 0 013 1.32z" class="cls-2"/><path fill="#6772e6" d="M75 46.15a1.74 1.74 0 01-1.74-1.74V33.28a1.74 1.74 0 013.49 0V44.4A1.74 1.74 0 0175 46.15zM116.06 75H104.4a1.74 1.74 0 110-3.49h11.67a1.74 1.74 0 01-.01 3.49zm-70.77 0H34.17a1.74 1.74 0 010-3.49h11.12a1.74 1.74 0 110 3.49zm8.24-19.29a1.73 1.73 0 01-1.23-.51l-7.87-7.87a1.74 1.74 0 112.46-2.46l7.87 7.87a1.74 1.74 0 01-1.23 2.97zm42.87.19a1.74 1.74 0 01-1.23-3l8.25-8.25a1.74 1.74 0 112.46 2.46l-8.25 8.25a1.74 1.74 0 01-1.23.54z" class="cls-3"/><path fill="#6772e6" d="M85.36 108.44a2.09 2.09 0 00-2.55-1.12 25.53 25.53 0 01-15.1 0 2.09 2.09 0 00-2.56 1.12 2 2 0 001.43 2.56 29.09 29.09 0 004 .93 1.5 1.5 0 000 .26c0 1.49 2.1 2.7 4.7 2.7s4.7-1.21 4.7-2.7a1.49 1.49 0 000-.26 29.12 29.12 0 004-.93 2 2 0 001.38-2.56z" class="cls-2"/></svg>