<svg width="110" height="110" xmlns="http://www.w3.org/2000/svg"><path fill="none" d="M-1-1h582v402H-1z"/><circle fill="#82ace8" r="55" cy="55" cx="55"/><path fill="#6772e6" d="M77.004 23l-6.364 6.364a1.995 1.995 0 00-.2 2.584l-15.612 7.571-2.791 17.009 1.338 1.338 17.009-2.791 7.571-15.612a1.995 1.995 0 002.584-.2l6.364-6.364L77.004 23z"/><path fill="#6772e6" d="M70.44 31.948l-15.612 7.571-2.791 17.009 1.338 1.338 17.009-2.791 7.571-15.612c-.084-.061-7.454-7.431-7.515-7.515zM44 76.917v-14h-2v14a5.008 5.008 0 00-4 4.899c0 2.757 2.243 5 5 5s5-2.243 5-5a5.008 5.008 0 00-4-4.899zm-2-44v23h2v-23a5.008 5.008 0 004-4.899c0-2.757-2.243-5-5-5s-5 2.243-5 5a5.01 5.01 0 004 4.899z"/><path fill="#6772e6" d="M79 79v2.918c-14.826-.548-25.499-4.185-30.981-10.62-2.512-2.949-3.516-5.995-3.895-8.299H47v-8h-3.137C42.826 39.086 35.654 33.713 31 31.912V28h-8v8h8v-1.948c4.076 1.844 9.921 6.937 10.862 20.948H39v8h3.084c.376 2.613 1.468 6.12 4.375 9.551C52.399 79.563 63.344 83.377 79 83.924V87h8v-8h-8z"/><path fill="#6772e6" d="M70.657 31.73l-15.612 7.572-2.79 17.009.714.716 21.483-21.484a585.865 585.865 0 01-3.795-3.812z"/><path fill="#6772e6" d="M74.452 35.543l7.765-7.764-4.996-4.996-6.364 6.364a1.995 1.995 0 00-.2 2.584c.031.042 1.92 1.937 3.795 3.812z"/></svg>