<svg width="63" height="60" fill="none" xmlns="http://www.w3.org/2000/svg"><path d="M4.432 30c0-3.72.842-7.26 2.31-10.5l12.795 33.66C10.58 48.99 4.432 40.2 4.432 30zm44.847-1.29c0 2.19-.905 4.74-2.028 8.31l-2.684 8.58L34.892 18l3.058-.3c1.467-.18 1.28-2.22-.156-2.13 0 0-4.338.33-7.147.33l-7.053-.33c-1.436-.09-1.592 2.04-.187 2.13l2.84.3 4.182 10.92-5.867 16.89L14.793 18l3.09-.3c1.435-.18 1.248-2.22-.187-2.13 0 0-4.339.33-7.147.33l-1.717-.03C13.638 8.88 21.846 4.26 31.21 4.26c6.96 0 13.326 2.58 18.07 6.75h-.343c-2.622 0-4.494 2.19-4.494 4.56 0 2.13 1.28 3.93 2.621 6.03 1.03 1.71 2.216 3.9 2.216 7.11zm-17.602 3.54l8.24 21.66.187.36a27.19 27.19 0 01-8.895 1.47c-2.621 0-5.15-.36-7.552-1.05l8.02-22.44zM54.71 17.64c2.09 3.69 3.277 7.86 3.277 12.36 0 9.48-5.368 17.79-13.327 22.23l8.177-22.71c1.53-3.66 2.06-6.6 2.06-9.21l-.187-2.67zM31.21 0c4.098 0 8.156.776 11.942 2.284a31.321 31.321 0 0110.125 6.503 29.951 29.951 0 016.766 9.732A28.994 28.994 0 0162.418 30c0 7.956-3.288 15.587-9.14 21.213C47.424 56.84 39.485 60 31.208 60c-4.098 0-8.157-.776-11.943-2.284A31.322 31.322 0 019.14 51.213C3.288 45.587 0 37.956 0 30c0-7.956 3.288-15.587 9.14-21.213C14.995 3.16 22.933 0 31.21 0zm0 58.62c16.415 0 29.773-12.84 29.773-28.62 0-15.78-13.358-28.62-29.774-28.62S1.436 14.22 1.436 30c0 15.78 13.357 28.62 29.773 28.62z" fill="#6772E6"/></svg>